<svg width="26" height="26" viewBox="0 0 26 26" fill="none" xmlns="http://www.w3.org/2000/svg">
<rect width="26" height="26" rx="13" fill="#7B9BAC"/>
<path d="M11.0716 12.3648C11.0716 12.3648 12.9643 12.2317 12.9643 10.129C12.9643 8.02622 11.4158 7 9.45436 7H3V18.7509H9.45436C9.45436 18.7509 13.3945 18.8688 13.3945 15.2825C13.3945 15.2826 13.5663 12.3648 11.0716 12.3648ZM8.98978 9.08858H9.45436C9.45436 9.08858 10.3317 9.08858 10.3317 10.3112C10.3317 11.5337 9.81573 11.7109 9.23048 11.7109H5.84387V9.08858H8.98978ZM9.27197 16.6624H5.84387V13.5221H9.45436C9.45436 13.5221 10.762 13.5058 10.762 15.1359C10.762 16.5103 9.78532 16.652 9.27197 16.6624ZM18.6494 9.98977C13.8794 9.98977 13.8836 14.5048 13.8836 14.5048C13.8836 14.5048 13.5563 18.9967 18.6494 18.9967C18.6494 18.9967 22.8935 19.2264 22.8935 15.8719H20.7108C20.7108 15.8719 20.7836 17.1352 18.7222 17.1352C18.7222 17.1352 16.5391 17.2738 16.5391 15.0908H22.9663C22.9663 15.0907 23.6696 9.98977 18.6494 9.98977ZM16.5151 13.5221C16.5151 13.5221 16.7817 11.7109 18.6979 11.7109C20.6137 11.7109 20.5897 13.5221 20.5897 13.5221H16.5151ZM21.0981 9.13931H15.9808V7.69228H21.0981V9.13931Z" fill="#050E14"/>
</svg>
