<svg width="26" height="28" viewBox="0 0 26 28" fill="none" xmlns="http://www.w3.org/2000/svg">
<path fill-rule="evenodd" clip-rule="evenodd" d="M13 27C20.1797 27 26 21.1797 26 14C26 6.8203 20.1797 1 13 1C5.8203 1 0 6.8203 0 14C0 21.1797 5.8203 27 13 27ZM5.37369 20.128C5.7024 20.7731 6.22691 21.2976 6.87203 21.6263C7.60544 22 8.56553 22 10.4857 22H15.5143C17.4345 22 18.3946 22 19.128 21.6263C19.7731 21.2976 20.2976 20.7731 20.6263 20.128C21 19.3946 21 18.4345 21 16.5143V11.4857C21 9.56553 21 8.60544 20.6263 7.87203C20.2976 7.22691 19.7731 6.7024 19.128 6.37369C18.3946 6 17.4345 6 15.5143 6H10.4857C8.56553 6 7.60544 6 6.87203 6.37369C6.22691 6.7024 5.7024 7.22691 5.37369 7.87203C5 8.60544 5 9.56553 5 11.4857V16.5143C5 18.4345 5 19.3946 5.37369 20.128ZM19.0423 8.67913C18.884 8.36851 18.6315 8.11597 18.3209 7.9577C18.2466 7.91984 18.0832 7.85631 17.6214 7.81858C17.1389 7.77916 16.5037 7.77778 15.5143 7.77778H10.4857C9.49629 7.77778 8.86114 7.77916 8.3786 7.81858C7.91682 7.85631 7.75345 7.91984 7.67913 7.9577C7.36851 8.11597 7.11597 8.36851 6.9577 8.67913C6.91984 8.75344 6.85631 8.91682 6.81858 9.3786C6.77916 9.86114 6.77778 10.4963 6.77778 11.4857V16.5143C6.77778 17.5037 6.77916 18.1389 6.81858 18.6214C6.85631 19.0832 6.91984 19.2466 6.9577 19.3209C7.11597 19.6315 7.36851 19.884 7.67913 20.0423C7.75345 20.0802 7.91682 20.1437 8.3786 20.1814C8.86114 20.2208 9.49629 20.2222 10.4857 20.2222H15.5143C16.5037 20.2222 17.1389 20.2208 17.6214 20.1814C18.0832 20.1437 18.2466 20.0802 18.3209 20.0423C18.6315 19.884 18.884 19.6315 19.0423 19.3209C19.0802 19.2466 19.1437 19.0832 19.1814 18.6214C19.2208 18.1389 19.2222 17.5037 19.2222 16.5143V11.4857C19.2222 10.4963 19.2208 9.86114 19.1814 9.3786C19.1437 8.91682 19.0802 8.75345 19.0423 8.67913ZM8.7143 14C8.7143 11.6331 10.6331 9.71429 13 9.71429C15.367 9.71429 17.2857 11.6331 17.2857 14C17.2857 16.3669 15.367 18.2857 13 18.2857C10.6331 18.2857 8.7143 16.3669 8.7143 14ZM13 11.4921C11.6149 11.4921 10.4921 12.6149 10.4921 14C10.4921 15.3851 11.6149 16.5079 13 16.5079C14.3851 16.5079 15.508 15.3851 15.508 14C15.508 12.6149 14.3851 11.4921 13 11.4921ZM18.3333 9.55556C18.3333 10.0465 17.9354 10.4444 17.4444 10.4444C16.9535 10.4444 16.5556 10.0465 16.5556 9.55556C16.5556 9.06464 16.9535 8.66667 17.4444 8.66667C17.9354 8.66667 18.3333 9.06464 18.3333 9.55556Z" fill="#C9A061"/>
</svg>
