<svg width="26" height="21" viewBox="0 0 26 21" fill="none" xmlns="http://www.w3.org/2000/svg">
<path d="M0 1.26949C0 0.932804 0.152182 0.609903 0.423068 0.371827C0.693954 0.13375 1.06135 0 1.44444 0H24.5556C24.9386 0 25.306 0.13375 25.5769 0.371827C25.8478 0.609903 26 0.932804 26 1.26949C26 1.60619 25.8478 1.92909 25.5769 2.16716C25.306 2.40524 24.9386 2.53899 24.5556 2.53899H1.44444C1.06135 2.53899 0.693954 2.40524 0.423068 2.16716C0.152182 1.92909 0 1.60619 0 1.26949ZM24.5556 8.88646H1.44444C1.06135 8.88646 0.693954 9.02021 0.423068 9.25829C0.152182 9.49636 0 9.81927 0 10.156C0 10.4926 0.152182 10.8155 0.423068 11.0536C0.693954 11.2917 1.06135 11.4255 1.44444 11.4255H24.5556C24.9386 11.4255 25.306 11.2917 25.5769 11.0536C25.8478 10.8155 26 10.4926 26 10.156C26 9.81927 25.8478 9.49636 25.5769 9.25829C25.306 9.02021 24.9386 8.88646 24.5556 8.88646ZM24.5556 17.7729H1.44444C1.06135 17.7729 0.693954 17.9067 0.423068 18.1448C0.152182 18.3828 0 18.7057 0 19.0424C0 19.3791 0.152182 19.702 0.423068 19.9401C0.693954 20.1782 1.06135 20.3119 1.44444 20.3119H24.5556C24.9386 20.3119 25.306 20.1782 25.5769 19.9401C25.8478 19.702 26 19.3791 26 19.0424C26 18.7057 25.8478 18.3828 25.5769 18.1448C25.306 17.9067 24.9386 17.7729 24.5556 17.7729Z" fill="white"/>
<path d="M0 1.26949C0 0.932804 0.152182 0.609903 0.423068 0.371827C0.693954 0.13375 1.06135 0 1.44444 0H24.5556C24.9386 0 25.306 0.13375 25.5769 0.371827C25.8478 0.609903 26 0.932804 26 1.26949C26 1.60619 25.8478 1.92909 25.5769 2.16716C25.306 2.40524 24.9386 2.53899 24.5556 2.53899H1.44444C1.06135 2.53899 0.693954 2.40524 0.423068 2.16716C0.152182 1.92909 0 1.60619 0 1.26949ZM24.5556 8.88646H1.44444C1.06135 8.88646 0.693954 9.02021 0.423068 9.25829C0.152182 9.49636 0 9.81927 0 10.156C0 10.4926 0.152182 10.8155 0.423068 11.0536C0.693954 11.2917 1.06135 11.4255 1.44444 11.4255H24.5556C24.9386 11.4255 25.306 11.2917 25.5769 11.0536C25.8478 10.8155 26 10.4926 26 10.156C26 9.81927 25.8478 9.49636 25.5769 9.25829C25.306 9.02021 24.9386 8.88646 24.5556 8.88646ZM24.5556 17.7729H1.44444C1.06135 17.7729 0.693954 17.9067 0.423068 18.1448C0.152182 18.3828 0 18.7057 0 19.0424C0 19.3791 0.152182 19.702 0.423068 19.9401C0.693954 20.1782 1.06135 20.3119 1.44444 20.3119H24.5556C24.9386 20.3119 25.306 20.1782 25.5769 19.9401C25.8478 19.702 26 19.3791 26 19.0424C26 18.7057 25.8478 18.3828 25.5769 18.1448C25.306 17.9067 24.9386 17.7729 24.5556 17.7729Z" stroke="white"/>
</svg>
