<svg width="31" height="30" viewBox="0 0 31 30" fill="none" xmlns="http://www.w3.org/2000/svg">
<path d="M23.811 7.79847C22.1282 7.08043 20.3286 6.55874 18.4477 6.26172C18.2166 6.64237 17.9467 7.15488 17.7607 7.56227C15.7608 7.28805 13.7795 7.28805 11.8166 7.56227C11.6303 7.15488 11.3544 6.64237 11.1213 6.26172C9.23805 6.55874 7.43662 7.08252 5.75379 7.80214C2.3595 12.4795 1.43937 17.0405 1.89942 21.5369C4.15071 23.0698 6.33245 24.0012 8.47738 24.6104C9.00698 23.9459 9.47932 23.2394 9.88623 22.4949C9.11127 22.2261 8.36904 21.8948 7.66769 21.5102C7.85375 21.3844 8.03573 21.253 8.21157 21.1178C12.4892 22.9423 17.1368 22.9423 21.3634 21.1178C21.5412 21.253 21.7232 21.3844 21.9072 21.5102C21.2039 21.8969 20.4597 22.2282 19.6848 22.4967C20.0917 23.2394 20.562 23.9477 21.0934 24.6125C23.2404 24.003 25.4243 23.0719 27.6755 21.5369C28.2154 16.3245 26.7535 11.8052 23.811 7.79847ZM10.469 18.7717C9.18488 18.7717 8.13183 17.6785 8.13183 16.3473C8.13183 15.0161 9.16239 13.9211 10.469 13.9211C11.7757 13.9211 12.8285 15.0143 12.8062 16.3473C12.8082 17.6785 11.7757 18.7717 10.469 18.7717ZM19.106 18.7717C17.8218 18.7717 16.7688 17.6785 16.7688 16.3473C16.7688 15.0161 17.7993 13.9211 19.106 13.9211C20.4126 13.9211 21.4657 15.0143 21.4431 16.3473C21.4431 17.6785 20.4126 18.7717 19.106 18.7717Z" fill="#7B9BAC"/>
</svg>
