<svg width="31" height="30" viewBox="0 0 31 30" fill="none" xmlns="http://www.w3.org/2000/svg">
<path d="M23.8111 7.79847C22.1282 7.08043 20.3287 6.55874 18.4477 6.26172C18.2167 6.64237 17.9467 7.15488 17.7607 7.56227C15.7608 7.28805 13.7796 7.28805 11.8166 7.56227C11.6303 7.15488 11.3545 6.64237 11.1213 6.26172C9.23808 6.55874 7.43665 7.08252 5.75382 7.80214C2.35953 12.4795 1.4394 17.0405 1.89945 21.5369C4.15074 23.0698 6.33248 24.0012 8.47742 24.6104C9.00701 23.9459 9.47935 23.2394 9.88626 22.4949C9.11131 22.2261 8.36907 21.8948 7.66772 21.5102C7.85378 21.3844 8.03576 21.253 8.2116 21.1178C12.4892 22.9423 17.1368 22.9423 21.3634 21.1178C21.5412 21.253 21.7233 21.3844 21.9073 21.5102C21.2039 21.8969 20.4597 22.2282 19.6848 22.4967C20.0917 23.2394 20.562 23.9477 21.0935 24.6125C23.2404 24.003 25.4243 23.0719 27.6755 21.5369C28.2154 16.3245 26.7535 11.8052 23.8111 7.79847ZM10.469 18.7717C9.18491 18.7717 8.13186 17.6785 8.13186 16.3473C8.13186 15.0161 9.16242 13.9211 10.469 13.9211C11.7758 13.9211 12.8285 15.0143 12.8063 16.3473C12.8082 17.6785 11.7758 18.7717 10.469 18.7717ZM19.106 18.7717C17.8219 18.7717 16.7688 17.6785 16.7688 16.3473C16.7688 15.0161 17.7993 13.9211 19.106 13.9211C20.4126 13.9211 21.4657 15.0143 21.4432 16.3473C21.4432 17.6785 20.4126 18.7717 19.106 18.7717Z" fill="#2B4654"/>
</svg>
