<svg width="26" height="23" viewBox="0 0 26 23" fill="none" xmlns="http://www.w3.org/2000/svg">
<path fill-rule="evenodd" clip-rule="evenodd" d="M19.8688 21.9394C20.2048 22.1869 20.6379 22.2487 21.024 22.0968C21.4101 21.9438 21.694 21.6008 21.7795 21.1851C22.6864 16.7527 24.8862 5.53363 25.7117 1.50165C25.7743 1.19775 25.6699 0.881924 25.4403 0.678968C25.2108 0.476012 24.8925 0.417404 24.6086 0.527022C20.233 2.21145 6.75752 7.46986 1.24962 9.5895C0.900025 9.72408 0.67253 10.0736 0.684009 10.4567C0.696532 10.8409 0.944898 11.1741 1.30284 11.2859C3.77294 12.0543 7.01528 13.1233 7.01528 13.1233C7.01528 13.1233 8.53052 17.8825 9.3205 20.3028C9.41963 20.6066 9.64817 20.8454 9.94976 20.9279C10.2503 21.0093 10.5717 20.9236 10.7961 20.7032C12.0651 19.4573 14.0269 17.5308 14.0269 17.5308C14.0269 17.5308 17.7545 20.3733 19.8688 21.9394ZM8.37921 12.5221L10.1313 18.5326L10.5206 14.7263C10.5206 14.7263 17.2902 8.3761 21.1492 4.75654C21.2619 4.65018 21.2776 4.47218 21.1837 4.34737C21.0908 4.22256 20.9196 4.19326 20.7913 4.27791C16.3186 7.24845 8.37921 12.5221 8.37921 12.5221Z" fill="#2B4654"/>
</svg>
