<svg width="27" height="15" viewBox="0 0 27 15" fill="none" xmlns="http://www.w3.org/2000/svg">
<path fill-rule="evenodd" clip-rule="evenodd" d="M7.87926 14.2311C11.7951 14.2311 14.9695 11.0567 14.9695 7.14092C14.9695 3.22511 11.7951 0.0507202 7.87926 0.0507202C3.96345 0.0507202 0.789062 3.22511 0.789062 7.14092C0.789062 11.0567 3.96345 14.2311 7.87926 14.2311ZM19.6957 13.64C21.6536 13.64 23.2408 10.7301 23.2408 7.14063C23.2408 3.55114 21.6536 0.641286 19.6957 0.641286C17.7378 0.641286 16.1506 3.55114 16.1506 7.14063C16.1506 10.7301 17.7378 13.64 19.6957 13.64ZM26.7858 7.14074C26.7858 10.4039 26.2567 13.0492 25.6041 13.0492C24.9514 13.0492 24.4224 10.4039 24.4224 7.14074C24.4224 3.87757 24.9514 1.23224 25.6041 1.23224C26.2567 1.23224 26.7858 3.87757 26.7858 7.14074Z" fill="#2B4654"/>
</svg>
