<svg width="27" height="22" viewBox="0 0 27 22" fill="none" xmlns="http://www.w3.org/2000/svg">
<path d="M26.7861 2.91576C25.8277 3.33155 24.8005 3.61071 23.7206 3.73743C24.8228 3.09197 25.6697 2.07033 26.0668 0.85466C25.0375 1.45062 23.8928 1.88422 22.6791 2.11785C21.7066 1.10413 20.3207 0.472534 18.787 0.472534C15.841 0.472534 13.4522 2.80488 13.4522 5.6837C13.4522 6.09156 13.5009 6.48952 13.592 6.87165C9.15892 6.65386 5.23029 4.5789 2.59838 1.42488C2.13845 2.19705 1.87708 3.09197 1.87708 4.0463C1.87708 5.85397 2.8172 7.44979 4.24966 8.38629C3.37438 8.35857 2.55178 8.12296 1.83251 7.73292C1.83251 7.7547 1.83251 7.77648 1.83251 7.79825C1.83251 10.3246 3.67221 12.4293 6.10962 12.9104C5.66388 13.0292 5.1918 13.0926 4.70553 13.0926C4.36109 13.0926 4.02678 13.0609 3.70058 12.9975C4.38135 15.0666 6.35073 16.5772 8.68278 16.6188C6.85928 18.0166 4.55965 18.8482 2.05943 18.8482C1.62787 18.8482 1.20442 18.8245 0.789062 18.775C3.14745 20.2559 5.95159 21.1172 8.96441 21.1172C18.7748 21.1172 24.14 13.1757 24.14 6.28955C24.14 6.06384 24.1339 5.83615 24.1258 5.6144C25.1672 4.87985 26.0708 3.96116 26.7861 2.91576Z" fill="#2B4654"/>
</svg>
