<svg width="19" height="19" viewBox="0 0 19 19" fill="none" xmlns="http://www.w3.org/2000/svg">
<path d="M6.13227 8.67323L6.13138 8.6743C5.94258 8.90215 5.83785 9.18776 5.83438 9.48329C5.81882 9.76549 5.89625 10.0452 6.05506 10.2794L6.06655 10.2963L6.0794 10.3123L9.89959 15.0579C10.0068 15.1967 10.1411 15.3122 10.2945 15.3974C10.45 15.4838 10.6216 15.5372 10.7986 15.5542C10.9757 15.5711 11.1543 15.5514 11.3233 15.4961L11.168 15.0209L11.3234 15.4961C11.4884 15.4422 11.6408 15.3555 11.7715 15.2414C11.8998 15.1362 12.0066 15.0073 12.0862 14.8617L11.6488 14.6227L12.0862 14.8617C12.1678 14.7123 12.2191 14.5483 12.2371 14.379C12.2551 14.2098 12.2395 14.0387 12.1911 13.8755C12.1429 13.7126 12.063 13.5609 11.9561 13.429C11.9558 13.4287 11.9556 13.4284 11.9553 13.4281L8.79404 9.50576L12.0775 5.57732L12.0775 5.57732L12.0784 5.57626C12.2975 5.31261 12.403 4.9727 12.3715 4.63132C12.34 4.28993 12.1742 3.97503 11.9106 3.75589C11.6469 3.53675 11.307 3.43132 10.9656 3.4628C10.6243 3.49426 10.3095 3.65997 10.0904 3.92348C10.0903 3.92356 10.0903 3.92364 10.0902 3.92373L6.13227 8.67323Z" fill="white" stroke="white"/>
</svg>
