<svg width="19" height="19" viewBox="0 0 19 19" fill="none" xmlns="http://www.w3.org/2000/svg">
<path d="M12.8677 10.3271L12.8686 10.326C13.0574 10.0982 13.1622 9.81254 13.1656 9.51702C13.1812 9.23482 13.1038 8.95511 12.9449 8.72093L12.9334 8.70398L12.9206 8.68803L9.10041 3.94244C8.99321 3.80363 8.85885 3.68808 8.7055 3.60286C8.55004 3.51647 8.37841 3.46311 8.20138 3.44614C8.02434 3.42916 7.8457 3.44893 7.67665 3.5042L7.83204 3.97944L7.67665 3.5042C7.51164 3.55816 7.35924 3.6448 7.22853 3.75893C7.10024 3.86409 6.99337 3.993 6.9138 4.13865L7.35115 4.37758L6.9138 4.13865C6.8322 4.28801 6.78092 4.45203 6.76292 4.62127C6.74491 4.79052 6.76054 4.96165 6.80888 5.12484C6.85713 5.28766 6.937 5.43937 7.04393 5.57129C7.04417 5.57158 7.04441 5.57188 7.04465 5.57218L10.206 9.49454L6.92248 13.423L6.92248 13.423L6.9216 13.424C6.70246 13.6877 6.59703 14.0276 6.62851 14.369C6.65998 14.7104 6.82578 15.0253 7.08944 15.2444C7.35309 15.4636 7.693 15.569 8.03438 15.5375C8.37566 15.506 8.69047 15.3403 8.9096 15.0768C8.90967 15.0767 8.90974 15.0767 8.90981 15.0766L12.8677 10.3271Z" fill="white" stroke="white"/>
</svg>
