<svg width="19" height="19" viewBox="0 0 19 19" fill="none" xmlns="http://www.w3.org/2000/svg">
<path d="M6.13227 8.67293L6.13138 8.674C5.94258 8.90184 5.83785 9.18746 5.83438 9.48298C5.81882 9.76518 5.89625 10.0449 6.05506 10.2791L6.06655 10.296L6.0794 10.312L9.89959 15.0576C10.0068 15.1964 10.1411 15.3119 10.2945 15.3971C10.45 15.4835 10.6216 15.5369 10.7986 15.5539C10.9757 15.5708 11.1543 15.5511 11.3233 15.4958L11.168 15.0206L11.3234 15.4958C11.4884 15.4418 11.6408 15.3552 11.7715 15.2411C11.8998 15.1359 12.0066 15.007 12.0862 14.8614L11.6488 14.6224L12.0862 14.8614C12.1678 14.712 12.2191 14.548 12.2371 14.3787C12.2551 14.2095 12.2395 14.0383 12.1911 13.8752C12.1429 13.7123 12.063 13.5606 11.9561 13.4287C11.9558 13.4284 11.9556 13.4281 11.9553 13.4278L8.79404 9.50546L12.0775 5.57701L12.0775 5.57701L12.0784 5.57596C12.2975 5.3123 12.403 4.9724 12.3715 4.63101C12.34 4.28963 12.1742 3.97473 11.9106 3.75559C11.6469 3.53645 11.307 3.43102 10.9656 3.46249C10.6243 3.49396 10.3095 3.65967 10.0904 3.92317C10.0903 3.92326 10.0903 3.92334 10.0902 3.92342L6.13227 8.67293Z" fill="#7B9BAC" stroke="#7B9BAC"/>
</svg>
