<svg width="26" height="23" viewBox="0 0 26 23" fill="none" xmlns="http://www.w3.org/2000/svg">
<path fill-rule="evenodd" clip-rule="evenodd" d="M19.8687 21.9395C20.2048 22.1869 20.6378 22.2488 21.0239 22.0969C21.4101 21.9438 21.6939 21.6009 21.7795 21.1852C22.6863 16.7527 24.8862 5.53369 25.7116 1.50171C25.7742 1.19782 25.6699 0.881985 25.4403 0.679029C25.2107 0.476073 24.8924 0.417465 24.6086 0.527083C20.2329 2.21151 6.75746 7.46992 1.24956 9.58956C0.899964 9.72414 0.672469 10.0736 0.683948 10.4567C0.696471 10.8409 0.944837 11.1741 1.30278 11.2859C3.77288 12.0543 7.01522 13.1234 7.01522 13.1234C7.01522 13.1234 8.53046 17.8825 9.32044 20.3028C9.41957 20.6067 9.64811 20.8455 9.9497 20.928C10.2502 21.0094 10.5717 20.9236 10.796 20.7033C12.065 19.4573 14.0269 17.5309 14.0269 17.5309C14.0269 17.5309 17.7545 20.3734 19.8687 21.9395ZM8.37915 12.5221L10.1313 18.5327L10.5205 14.7264C10.5205 14.7264 17.2901 8.37616 21.1492 4.7566C21.2619 4.65024 21.2775 4.47225 21.1836 4.34743C21.0907 4.22262 20.9196 4.19332 20.7912 4.27797C16.3185 7.24851 8.37915 12.5221 8.37915 12.5221Z" fill="#7B9BAC"/>
</svg>
