<svg width="27" height="15" viewBox="0 0 27 15" fill="none" xmlns="http://www.w3.org/2000/svg">
<path fill-rule="evenodd" clip-rule="evenodd" d="M7.87923 14.2312C11.795 14.2312 14.9694 11.0568 14.9694 7.14098C14.9694 3.22517 11.795 0.0507812 7.87923 0.0507812C3.96342 0.0507812 0.789032 3.22517 0.789032 7.14098C0.789032 11.0568 3.96342 14.2312 7.87923 14.2312ZM19.6957 13.64C21.6536 13.64 23.2408 10.7302 23.2408 7.14069C23.2408 3.5512 21.6536 0.641347 19.6957 0.641347C17.7378 0.641347 16.1506 3.5512 16.1506 7.14069C16.1506 10.7302 17.7378 13.64 19.6957 13.64ZM26.7857 7.1408C26.7857 10.404 26.2567 13.0493 25.604 13.0493C24.9514 13.0493 24.4223 10.404 24.4223 7.1408C24.4223 3.87763 24.9514 1.2323 25.604 1.2323C26.2567 1.2323 26.7857 3.87763 26.7857 7.1408Z" fill="#7B9BAC"/>
</svg>
