<svg width="27" height="22" viewBox="0 0 27 22" fill="none" xmlns="http://www.w3.org/2000/svg">
<path d="M26.786 2.91588C25.8277 3.33167 24.8004 3.61084 23.7205 3.73755C24.8227 3.0921 25.6696 2.07046 26.0668 0.854782C25.0375 1.45074 23.8927 1.88434 22.6791 2.11797C21.7066 1.10425 20.3207 0.472656 18.787 0.472656C15.841 0.472656 13.4522 2.80501 13.4522 5.68382C13.4522 6.09168 13.5008 6.48965 13.592 6.87177C9.15889 6.65398 5.23026 4.57902 2.59835 1.425C2.13842 2.19717 1.87705 3.0921 1.87705 4.04642C1.87705 5.85409 2.81717 7.44991 4.24963 8.38641C3.37435 8.3587 2.55175 8.12309 1.83248 7.73304C1.83248 7.75482 1.83248 7.7766 1.83248 7.79838C1.83248 10.3248 3.67218 12.4294 6.10959 12.9105C5.66385 13.0293 5.19177 13.0927 4.7055 13.0927C4.36106 13.0927 4.02675 13.061 3.70055 12.9977C4.38132 15.0667 6.3507 16.5774 8.68275 16.6189C6.85925 18.0168 4.55962 18.8483 2.0594 18.8483C1.62784 18.8483 1.20438 18.8246 0.789032 18.7751C3.14742 20.2561 5.95156 21.1173 8.96438 21.1173C18.7748 21.1173 24.1399 13.1759 24.1399 6.28967C24.1399 6.06396 24.1339 5.83627 24.1257 5.61452C25.1672 4.87997 26.0708 3.96128 26.786 2.91588Z" fill="#7B9BAC"/>
</svg>
